<?xml version="1.0" encoding="UTF-8"?>
<svg width="42px" height="42px" viewBox="0 0 42 42" version="1.1" xmlns="http://www.w3.org/2000/svg" xmlns:xlink="http://www.w3.org/1999/xlink">
    <!-- Generator: Sketch 53.2 (72643) - https://sketchapp.com -->
    <title>4</title>
    <desc>Created with Sketch.</desc>
    <g id="Final" stroke="none" stroke-width="1" fill="none" fill-rule="evenodd">
        <g id="WFA-Final-FA-Page_Conversation-Exploration" transform="translate(-780.000000, -4683.000000)" fill="#946E3A" stroke="#FFFFFF" stroke-width="0.7">
            <g id="Content" transform="translate(60.000000, 141.000000)">
                <g id="Section-3" transform="translate(0.000000, 4422.000000)">
                    <g id="Smilies" transform="translate(81.000000, 121.000000)">
                        <g transform="translate(32.000000, 0.000000)" id="4">
                            <g transform="translate(608.000000, 0.000000)">
                                <g id="Group-8" transform="translate(-0.000112, -0.000056)">
                                    <path d="M19.9057343,1.97594406 C10.0193007,1.97594406 1.97594406,10.019021 1.97594406,19.9057343 C1.97594406,29.7918881 10.0193007,37.8352448 19.9057343,37.8352448 C29.7921678,37.8352448 37.8355245,29.7918881 37.8355245,19.9057343 C37.8355245,10.019021 29.7921678,1.97594406 19.9057343,1.97594406 M19.9057343,39.8111888 C8.92979021,39.8111888 2.13162821e-14,30.8816783 2.13162821e-14,19.9057343 C2.13162821e-14,8.92923077 8.92979021,4.97379915e-14 19.9057343,4.97379915e-14 C30.8816783,4.97379915e-14 39.8114685,8.92923077 39.8114685,19.9057343 C39.8114685,30.8816783 30.8816783,39.8111888 19.9057343,39.8111888" id="Fill-1"></path>
                                    <path d="M11.5340699,19.0648392 C9.12008392,19.0648392 7.15644755,17.1009231 7.15644755,14.6872168 L9.13211189,14.6872168 C9.13211189,16.0114126 10.2098741,17.0891748 11.5340699,17.0891748 C12.8582657,17.0891748 13.936028,16.0114126 13.936028,14.6872168 L15.9116923,14.6872168 C15.9116923,17.1009231 13.9480559,19.0648392 11.5340699,19.0648392" id="Fill-4"></path>
                                    <path d="M28.2776783,19.0648392 C25.8636923,19.0648392 23.9000559,17.1009231 23.9000559,14.6872168 L25.8757203,14.6872168 C25.8757203,16.0114126 26.9534825,17.0891748 28.2776783,17.0891748 C29.6018741,17.0891748 30.6793566,16.0114126 30.6793566,14.6872168 L32.6553007,14.6872168 C32.6553007,17.1009231 30.6916643,19.0648392 28.2776783,19.0648392" id="Fill-6"></path>
                                    <polygon id="Fill-8" points="11.4465455 26.9947413 28.2297622 26.9947413 28.2297622 25.0366993 11.4465455 25.0366993"></polygon>
                                </g>
                            </g>
                        </g>
                    </g>
                </g>
            </g>
        </g>
    </g>
</svg>