<?xml version="1.0" encoding="UTF-8"?>
<svg width="42px" height="42px" viewBox="0 0 42 42" version="1.1" xmlns="http://www.w3.org/2000/svg" xmlns:xlink="http://www.w3.org/1999/xlink">
    <!-- Generator: Sketch 53.2 (72643) - https://sketchapp.com -->
    <title>1</title>
    <desc>Created with Sketch.</desc>
    <g id="Final" stroke="none" stroke-width="1" fill="none" fill-rule="evenodd">
        <g id="WFA-Final-FA-Page_Conversation-Exploration" transform="translate(-172.000000, -4683.000000)" fill="#946E3A" stroke="#FFFFFF" stroke-width="0.7">
            <g id="Content" transform="translate(60.000000, 141.000000)">
                <g id="Section-3" transform="translate(0.000000, 4422.000000)">
                    <g id="Smilies" transform="translate(81.000000, 121.000000)">
                        <g transform="translate(32.000000, 0.000000)" id="1">
                            <g>
                                <g id="Group-4">
                                    <path d="M19.9057343,1.97594406 C10.0193007,1.97594406 1.97594406,10.019021 1.97594406,19.9057343 C1.97594406,29.7916084 10.0193007,37.8346853 19.9057343,37.8346853 C29.7921678,37.8346853 37.8355245,29.7916084 37.8355245,19.9057343 C37.8355245,10.019021 29.7921678,1.97594406 19.9057343,1.97594406 M19.9057343,39.8109091 C8.92951049,39.8109091 1.77635684e-14,30.8813986 1.77635684e-14,19.9057343 C1.77635684e-14,8.92923077 8.92951049,7.81597009e-14 19.9057343,7.81597009e-14 C30.881958,7.81597009e-14 39.8114685,8.92923077 39.8114685,19.9057343 C39.8114685,30.8813986 30.881958,39.8109091 19.9057343,39.8109091" id="Fill-1"></path>
                                    <path d="M13.9513287,31.2970629 L12.3076923,30.2 C14.0565035,27.579021 16.9804196,26.013986 20.1281119,26.013986 C23.2542657,26.013986 26.1667133,27.5622378 27.9188811,30.1558042 L26.2813986,31.2618182 C24.8973427,29.2128671 22.5969231,27.9899301 20.1281119,27.9899301 C17.6422378,27.9899301 15.3328671,29.226014 13.9513287,31.2970629" id="Fill-4" transform="translate(20.113287, 28.655524) rotate(-180.000000) translate(-20.113287, -28.655524) "></path>
                                    <path d="M16.7558042,18.3776224 L14.7798601,18.3776224 C14.7798601,17.0534266 13.7023776,15.9756643 12.3781818,15.9756643 C11.0537063,15.9756643 9.97622378,17.0534266 9.97622378,18.3776224 L8,18.3776224 C8,15.9636364 9.96391608,14 12.3781818,14 C14.7918881,14 16.7558042,15.9636364 16.7558042,18.3776224" id="Fill-4"></path>
                                    <path d="M31.6506853,18.3776224 L29.675021,18.3776224 C29.675021,17.0534266 28.5972587,15.9756643 27.2730629,15.9756643 C25.9485874,15.9756643 24.8713846,17.0534266 24.8713846,18.3776224 L22.8951608,18.3776224 C22.8951608,15.9636364 24.8590769,14 27.2730629,14 C29.6867692,14 31.6506853,15.9636364 31.6506853,18.3776224" id="Fill-6"></path>
                                </g>
                            </g>
                        </g>
                    </g>
                </g>
            </g>
        </g>
    </g>
</svg>