<?xml version="1.0" encoding="UTF-8"?>
<svg width="42px" height="42px" viewBox="0 0 42 42" version="1.1" xmlns="http://www.w3.org/2000/svg" xmlns:xlink="http://www.w3.org/1999/xlink">
    <!-- Generator: Sketch 53.2 (72643) - https://sketchapp.com -->
    <title>3</title>
    <desc>Created with Sketch.</desc>
    <g id="Final" stroke="none" stroke-width="1" fill="none" fill-rule="evenodd">
        <g id="WFA-Final-FA-Page_Conversation-Exploration" transform="translate(-577.000000, -4683.000000)" fill="#946E3A" stroke="#FFFFFF" stroke-width="0.7">
            <g id="Content" transform="translate(60.000000, 141.000000)">
                <g id="Section-3" transform="translate(0.000000, 4422.000000)">
                    <g id="Smilies" transform="translate(81.000000, 121.000000)">
                        <g transform="translate(32.000000, 0.000000)" id="3">
                            <g transform="translate(405.000000, 0.000000)">
                                <g id="Group-9" transform="translate(-0.000084, 0.000112)">
                                    <path d="M19.9057343,1.97594406 C10.0193007,1.97594406 1.97594406,10.0193007 1.97594406,19.9057343 C1.97594406,29.7918881 10.0193007,37.834965 19.9057343,37.834965 C29.7921678,37.834965 37.8352448,29.7918881 37.8352448,19.9057343 C37.8352448,10.0193007 29.7921678,1.97594406 19.9057343,1.97594406 M19.9057343,39.8111888 C8.92979021,39.8111888 4.61852778e-14,30.8816783 4.61852778e-14,19.9057343 C4.61852778e-14,8.92951049 8.92979021,5.68434189e-14 19.9057343,5.68434189e-14 C30.8816783,5.68434189e-14 39.8111888,8.92951049 39.8111888,19.9057343 C39.8111888,30.8816783 30.8816783,39.8111888 19.9057343,39.8111888" id="Fill-1"></path>
                                    <path d="M16.336028,16.7896503 L14.3600839,16.7896503 C14.3600839,15.4654545 13.2826014,14.3876923 11.9584056,14.3876923 C10.6339301,14.3876923 9.55644755,15.4654545 9.55644755,16.7896503 L7.58022378,16.7896503 C7.58022378,14.3756643 9.54413986,12.412028 11.9584056,12.412028 C14.3721119,12.412028 16.336028,14.3756643 16.336028,16.7896503" id="Fill-4"></path>
                                    <path d="M32.2309091,16.7896503 L30.2552448,16.7896503 C30.2552448,15.4654545 29.1774825,14.3876923 27.8532867,14.3876923 C26.5288112,14.3876923 25.4516084,15.4654545 25.4516084,16.7896503 L23.4753846,16.7896503 C23.4753846,14.3756643 25.4393007,12.412028 27.8532867,12.412028 C30.266993,12.412028 32.2309091,14.3756643 32.2309091,16.7896503" id="Fill-6"></path>
                                    <path d="M13.6071049,29.3896224 L11.9634685,28.2925594 C13.7125594,25.6715804 16.6359161,24.1065455 19.7838881,24.1065455 C22.910042,24.1065455 25.8227692,25.6547972 27.5749371,28.2483636 L25.9371748,29.3543776 C24.5531189,27.3054266 22.2526993,26.0824895 19.7838881,26.0824895 C17.2977343,26.0824895 14.9886434,27.3185734 13.6071049,29.3896224" id="Fill-8"></path>
                                </g>
                            </g>
                        </g>
                    </g>
                </g>
            </g>
        </g>
    </g>
</svg>